<svg height="100%" version="1.1" width="100%" xmlns="http://www.w3.org/2000/svg" preserveAspectRatio="xMidYMid meet" viewBox="0 0 600 442" xmlns:xlink="http://www.w3.org/1999/xlink"><desc>Created with Snap</desc><defs/><g id="root" contentwidth="262" contentheight="241">
          <rect class="background" height="2000%" width="2000%" y="-1000%" x="-1000%" style="" fill="#ffffff"/>
          <g class="content" id="content" transform="matrix(1,0,0,1,0,-0.5)">
            <g class="icon">
            <svg height="196" version="1.1" width="262" xmlns="http://www.w3.org/2000/svg" x="169" y="101" preserveAspectRatio="none" transform="matrix(1,0,0,1,0,0)"><desc>Created with Snap</desc><defs/><svg xmlns="http://www.w3.org/2000/svg" viewBox="169 101 262 196"><path d="M360.323 101.005c.407.228 1.031.48 1.535.756.443-.276.827-.504 1.199-.732 10.504.156 18.706.84 21.26 1.392 8.478 1.848 21.165 4.704 26.92 10.333 7.855 7.705 10.661 12.577 12.16 23.486 2.062 14.833 4.113 29.739 4.233 44.716.048 6.877-.552 14.366-5.156 19.49-1.487 1.656-3.322 2.988-4.617 4.789-2.158 3-2.506 6.9-2.506 10.609.012 6.36.923 12.72 2.65 18.841-1.055.145-1.307 1.225-.588 3.217.444-.408.84-.78 1.211-1.14a71.908 71.908 0 0 0 2.818 7.476c2.598 5.804 5.974 11.26 7.981 17.265l.305.953-.012.012c1.943 6.373 1.99 13.85-2.038 19.166-4.03 5.317-12.975 6.925-17.388 1.932a8.76 8.76 0 0 0 2.147-1.32c4.82-3.912 5.744-12.313 1.187-16.79-2.518-2.484-6.044-3.612-8.898-5.7-3.609-2.655-5.835-6.577-7.989-10.58l-.806-1.503c-.898-1.67-1.812-3.327-2.836-4.887-6.871-10.465-18.407-19.538-29.99-24.278-12.171-4.993-29.775-7.5-42.03-4.993-12.279 2.52-34.307 4.44-48.672 15.506-5.55 4.276-6.101 11.258-6.313 18.6l-.033 1.227-.034 1.299-.024.867c-.114 3.905-.334 7.81-1.343 11.37-1.127 3.985-1.33 8.209-2.53 12.181-1.211 3.973-3.765 7.91-7.746 9.097-5.205 1.572-10.817-2.388-12.903-7.405-2.11-5.028-1.535-10.729-.672-16.105.492-2.964.108-7.249-2.913-7.405-3.526-.18-3.598 5.089-4.281 8.557-.408 2.04-1.44 3.804-2.686 5.46-.336.445-.672.865-1.02 1.297-.887.48-2.134.66-3.117 1.38-1.907 1.356-3.274 3.612-3.706 5.892-.251 1.225-.3 2.485-.204 3.733-.611 1.884-.923 3.84-.767 5.82.312 4.537 3.178 7.741 6.8 10.081-2.255 3.625-8.623 1.824-11.357-.912-3.525-3.492-4.424-8.929-3.789-13.85.424-3.28 1.423-6.432 2.469-9.573l.524-1.57c.348-1.048.692-2.096 1.012-3.15 2.59-8.496 3.19-18.781-2.914-25.226-5.168-5.448-13.478-6.36-20.96-5.989-.857.044-1.716.1-2.577.16l-1.293.095-1.251.094-1.252.091c-5.424.386-10.847.59-15.98-1.04-.659-.204-1.342-.468-1.846-.972-2.302-2.34 1.583-5.604 4.617-6.876 11.44-4.765 20.529-14.87 24.042-26.75 2.243-7.622 1.427-17.463-5.504-21.339-1.69-.96-3.657-1.452-5.12-2.724-1.463-1.272-2.218-3.745-.863-5.125.647-.648 1.582-.888 2.482-1.068 9.905-1.932 20.121.72 29.522 4.357 6.98 2.7 15.073 5.928 21.537 2.136 4.213-2.47 6.218-7.033 8.033-11.73l.31-.807.153-.403.309-.806c.514-1.342 1.037-2.672 1.615-3.944 5.48-12.049 17.52-20.21 30.302-23.594 12.795-3.384 26.321-2.532 39.38-.48a221.087 221.087 0 0 1 66.827 21.818c3.226 1.656 6.835 3.432 10.289 2.352 2.904-.918 4.671-3.628 5.379-6.676l.064-.296.063.209c.115.346.28.676.511.973l.146.174c.66-.744 1.32-1.477 2.099-2.353-.78-.84-1.451-1.56-2.123-2.28-.156.18-.288.384-.408.588 0-.528-.023-1.044-.071-1.56-.924-9.049-8.334-16.394-16.716-19.91-8.37-3.528-17.687-3.948-26.753-4.332-10.049-.408-20.085-.828-30.122-1.248-.73-.031-1.465-.064-2.202-.1l-1.108-.056c-10.355-.552-21.135-1.904-28.803-8.69 11.608-9.54 41.166-11.7 62.739-11.58Zm-104.564 148.67c-1.092 1.548-2.17 3.12-3.022 4.788-.204.396.408 1.669.851 1.789.588.156 1.403-.348 2.039-.72.228-.145.228-.709.276-1.08.09-.814.467-1.244 1.27-1.172l.156.02.012-.013c1.212.192 1.427-.636 1.607-1.86-.3-.42-.731-1.008-1.15-1.608-.624-.9-1.368-1.104-2.04-.144Zm157.301 3.948c-.371.336-.731.672-1.283 1.164.452.525.756.885 1.042 1.224l.122.145v-.012c.287-.432.755-.853.803-1.309.036-.384-.432-.804-.684-1.212Zm4.787-11.166-.146.005-.333-.005c-.22-.005-.438-.01-.662.005-1.103.06-1.475.732-1.391 1.74.091 1.043.882 1.637 1.642 1.397l.109-.04h-.012c.959-.42 1.702-1.38 2.494-2.16.036-.037-.396-.733-.732-.913-.252-.136-.623-.052-.969-.03Zm-193.41-15.704-.611.288c-.168.588-.552 1.212-.456 1.752.078.432.554.956.994 1.147l.11.041v.012c.431.132 1.019-.216 1.546-.36-.216-.48-.42-.972-.671-1.428-.276-.504-.612-.972-.912-1.452Zm177.196-4.26c0 .755-.312 1.775.06 2.268 1.007 1.332 2.302 2.448 3.49 3.648.863-.924 1.522-1.632 2.29-2.436-.84-.672-1.631-1.44-2.543-2.005-.875-.528-1.882-.852-3.297-1.476Zm-190.674-14.51c-3.766 0-7 2.273-8.409 5.523 2.654-.859 6.06-.646 9.329.805v.012c3.5 1.566 6.054 4.201 7.121 6.97-2.745 1.08-6.39.958-9.89-.608-3.25-1.454-5.684-3.828-6.86-6.385a9.153 9.153 0 0 0-.452 2.852c0 5.064 4.1 9.169 9.161 9.169 5.06 0 9.161-4.105 9.161-9.17 0-5.064-4.1-9.168-9.16-9.168Zm78.348 6.744-.373.09c-.186.045-.37.088-.547.115-.06.216-.132.444-.192.66.588.468 1.151.96 1.763 1.392.213.15.568.336.77.309l.07-.021.011.012c.264-.156.588-.624.528-.852-.168-.636-.384-1.536-.84-1.728-.335-.14-.757-.076-1.19.023Zm34.958-7.428c.216.432.396.876.647 1.272.3.48.66.924.996 1.38.152-.048.298-.09.443-.131l.216-.06h.012c.132-.649.48-1.357.336-1.945-.096-.42-.803-.864-1.307-.984-.384-.084-.887.3-1.343.468Zm-54.465 1.656c1.176 1.188 1.823 1.212 2.938.132-.9-.948-1.822-.912-2.938-.132Zm116.064-3.288c.6.996.971 1.536 1.271 2.124.322.621.05 1.804 1.05 1.712l.137-.02-.012.012c.336-.06.432-1.416.624-2.172a.397.397 0 0 0 0-.288c-.252-.564-.408-1.452-.827-1.608-.588-.216-1.367.12-2.243.24Zm-91.373 1.152c-.432 0-.864.456-1.296.72.389.294.777.588 1.302.978l.233.174h.012l1.056-1.14c-.444-.264-.876-.732-1.307-.732Zm-76.529-21.71c-4.94 0-8.945 4.008-8.945 8.953 0 4.944 4.005 8.952 8.945 8.952a8.941 8.941 0 0 0 7.786-4.541l.252-.088c-2.71 1.005-6.229.804-9.522-.793-3.292-1.596-5.622-4.245-6.478-6.977 2.698-1.005 6.217-.804 9.51.793 3.198 1.55 5.488 4.094 6.412 6.743a8.917 8.917 0 0 0 .986-4.09c0-4.944-4.006-8.952-8.946-8.952Zm103.965 15.265-.168.288c-.288 0-.612-.084-.852.012-.467.192-.899.48-1.343.732.432.228.864.504 1.32.684.21.09.477.122.707.081l.132-.033.012.012c.476-.162.946-.364 1.415-.562l.467-.194-1.69-1.02Zm52.27-6.168c-.3.132-.732.048-.96.228-.48.372-1.019.804-1.235 1.332-.132.336.168 1.164.468 1.284.534.207 1.266.325 1.8.165l.154-.057.012.012c1.224-.552 2.35-1.344 3.67-2.136-.648-.564-1.271-1.38-2.099-1.704-.42-.168-1.187.588-1.81.876Zm-51.755-3.397c-.024.6.228 1.56.612 1.728.388.159.85.136 1.323.084l.475-.055.236-.024.232-.017.096-.672c-.564-.516-1.115-1.044-1.69-1.536-.708-.588-1.26-.312-1.284.492Zm-65.88-11.689c-.336.42-.66.852-1.14 1.452.48.504.792.828 1.104 1.164.276-.492.732-.96.78-1.464.035-.348-.48-.768-.744-1.152Zm156.51-13.91a5.224 5.224 0 0 1-.15.184l-.311.363a2.635 2.635 0 0 0-.39.582c-.216.48-.168 1.092-.408 1.56-.42.816-.959 1.56-1.583 2.544l.004-.006.141.216c.465.735.771 1.434 1.252 1.811l.15.104c.36.216 1.62-.24 1.74-.625.191-.624-.013-1.584-.42-2.136-.576-.768-1.464-1.224 0-1.98.36-.18.599-.888.599-1.356 0-.42-.396-.84-.624-1.26Zm-136.329-1.56c-.287.409-.779.829-.779 1.237 0 .405.36.801.625 1.204l.094.152 1.188-1.188c-.492-.612-.804-1.008-1.128-1.404Zm126.22-.371c-.06 1.068.396 1.608 1.464 1.632.971.024 1.51-.42 1.607-1.44-.103-.821-.292-1.599-1.287-1.705l-.164-.012h.012c-1.044-.036-1.571.469-1.631 1.525Zm-32.208-4.56v2.951c1.451-1.176 1.44-1.848 0-2.952Zm-113.294-9.05c0 1.728-.048 3.325.036 4.909.012.312.528.864.768.84 1.206-.128 1.87.534 2.497 1.254l.22.256c.183.213.369.424.568.614.04.038.078.077.117.118l.228.249c.152.164.31.314.495.39.234.095.677.058.874-.086l.061-.059.012-.024c.636-.804-.012-2.412-1.031-2.388-1.223.024-1.739-.72-2.482-1.44-.864-.84-1.056-1.752-.936-2.845.084-.804.036-1.56-1.427-1.788Zm157.698 6.073c.072 1.02.815 1.596 1.775 1.356.554-.128 1.013-.626 1.505-1.013l.185-.14-.024-.695c-.575-.384-1.127-1.008-1.75-1.104-1.032-.156-1.763.492-1.691 1.596Zm-115.896.696c1.031.9 1.907.984 2.806-.036-.96-1.008-1.847-.936-2.806.036Zm27.1-7.069c-.647.624-1.235 1.116-1.738 1.68-.216.252-.432.733-.324.96.132.265.587.469.923.505 1.679.168 2.159-.996 1.14-3.145Zm-48.049.36c-.3.456-.78.888-.851 1.368-.044.306.388.67.674 1.023l.081.106v-.012c.336-.36.66-.732 1.14-1.26-.456-.529-.744-.877-1.044-1.225Zm1.859-6.312c-1.401 1.02-1.438 1.748-.144 2.856l.144.12v-2.976ZM317.346 142c-.48.216-.995.384-1.439.66-.384.24-.721.541-1.062.836l-.257.22.12.528c.6.168 1.235.528 1.799.432.431-.078.955-.554 1.155-.995l.044-.11.012-.011c.144-.432-.228-1.032-.372-1.56Zm100.02-8.377a1021.34 1021.34 0 0 0-2.926 3.28l-.744.836.167.175c.514.54.83.893 1.164 1.217 1.415 1.392 2.17 1.38 3.61-.036.779-.78 1.666-1.476 2.278-2.364.371-.54.347-1.368.383-2.064.012-.084-.85-.384-.923-.3-.995 1.332-1.81.78-3.01-.744Zm-116.26 3.45-.08.006c-.557.112-1.372.295-1.61.657l-.045.087.012.012c-.16.397-.107.877-.031 1.365l.065.419.029.208.02.204.6.096c.504-.564 1.044-1.092 1.523-1.68.18-.228.408-.684.312-.84-.134-.211-.453-.46-.704-.521l-.09-.014Zm-8.246-.018c-.335-.01-.689.377-1.036.638l-.115.082h.012c.36.348.719.696 1.283 1.236.515-.54.863-.888 1.199-1.248-.444-.252-.888-.684-1.343-.708Zm109.252-1.704-.06.18c-.431 0-.899-.12-1.259.036-.3.12-.695.792-.66.828.792.768 1.572 1.596 2.507 2.148.28.168 1.176-.197 1.47-.568l.053-.08h.012c.264-.48.264-1.476-.06-1.812-.444-.468-1.32-.504-2.003-.732Zm-97.549.384c-.312.048-.683.744-.72 1.164-.023.444.312.912.492 1.368.288-.153.59-.292.879-.454l.285-.17v.012c.343-.224.682-.47 1.018-.715l.504-.365-.263-.66c-.732-.084-1.487-.288-2.195-.18Zm28.563-17.318c-.371-.012-.767.48-1.15.756.304.294.617.588 1.052 1.003l.194.186v-.012l1.247-1.225c-.455-.252-.887-.696-1.343-.708Zm10.133-4.404c-.24.348-.707.72-.671 1.044.052.473.352.908.587 1.356l.096.192v-.012l1.151-1.104-1.163-1.476Zm-8.682-.228c-.208-.015-.434.161-.662.364l-.227.205a3.35 3.35 0 0 1-.226.187c.456.324.912.648 1.571 1.128.432-.492.732-.828 1.031-1.164-.491-.264-.983-.684-1.487-.72Zm-9.317 0c-.372.072-.695.456-1.043.696.36.276.683.624 1.08.828.215.12.55.024.839.024.27 0 .572.058.833.015l.15-.039h.012c.431-.168.815-.48 1.223-.72-.372-.276-.708-.72-1.115-.804a5.225 5.225 0 0 0-1.979 0Zm74.718-5.46c1.271 1.067 1.619 1.055 2.674-.073-.923-.948-1.799-.888-2.674.072Zm-15.589-2.34c-.9-.013-1.547.371-1.57 1.427-.025 1.032.323 1.668 1.966 1.68.205-.259.77-.693.976-1.223l.055-.18v-.013c.204-.936-.372-1.68-1.427-1.692Z" id="prefix-olH-形状结合" fill="#28b4d2" fill-rule="nonzero" style="" stroke="#ffffff" paint-order="stroke"/><desc>Created with Snap</desc><defs/></svg></svg><svg height="129" version="1.1" width="194" xmlns="http://www.w3.org/2000/svg" x="223" y="213" preserveAspectRatio="none" transform="matrix(1,0,0,1,0,0)"><desc>Created with Snap</desc><defs/><svg xmlns="http://www.w3.org/2000/svg" viewBox="223 213 194 129"><path d="M414.022 265.887c-2.521-2.482-6.063-3.622-8.908-5.697-5.57-4.09-7.864-11.19-11.646-16.959-6.879-10.458-18.429-19.525-30.026-24.263-12.186-4.99-29.81-7.484-42.08-4.99-12.306 2.52-34.35 4.438-48.732 15.497-9.353 7.184-4.538 22.008-7.756 33.342-1.14 3.982-1.332 8.204-2.533 12.174-1.213 3.97-3.77 7.903-7.756 9.09-5.21 1.572-10.829-2.386-12.918-7.4-2.101-5.013-1.537-10.722-.672-16.095.48-2.962.096-7.256-2.918-7.4-3.541-.18-3.601 5.085-4.286 8.552-.396 2.039-1.44 3.802-2.69 5.457-.131.635-.515 1.02-1.02 1.295-.888.48-2.137.672-3.121 1.38-1.909 1.355-3.266 3.597-3.71 5.888-.252 1.236-.3 2.483-.204 3.73.216 2.963 1.237 5.937 2.257 8.804.684 1.93 1.465 4.006 3.134 5.205 1.272.911 2.869 1.2 4.31 1.799 3.41 1.38 5.81 4.414 7.924 7.424 7.455 10.543 13.974 22.56 25.188 28.965 6.747 3.838 14.55 5.241 22.198 6.452 18.393 2.939 37.122 5.158 55.611 2.999 18.513-2.147 36.954-9.02 50.184-22.128a53.768 53.768 0 0 0 3.266-3.539c-.336 0-.672-.012-.972-.12-.337-.12-.48-.995-.553-1.547-.036-.276.24-.707.493-.863.168-.096.624.108.84.312.384.347.732.743 1.08 1.127 3.71-4.702 6.472-10.123 6.952-16.036.216-2.746-.048-5.553.42-8.275.456-2.723 1.849-5.505 4.394-6.633.949-.42 2.017-.6 3.074-.767 4.826-3.898 5.738-12.306 1.188-16.78h-.012Zm-169.402 34.05c-.54.588-1.152 1.104-1.728 1.644l-.613-.036c0-.756-.228-1.643.084-2.243.216-.408 1.2-.564 1.825-.54.685.024.985.564.432 1.176Zm3.47-11.837-1.104-1.032c.42-.264.84-.72 1.26-.72.42 0 .84.456 1.273.708-.408.3-.829.6-1.429 1.056v-.012Zm3.374 17.03c-.6-.431-1.02-.73-1.429-1.03.432-.253.852-.72 1.285-.72.444 0 .876.455 1.308.72l-1.152 1.019-.012.012Zm12.138-.995c-1.105.972-1.753.948-2.798-.12 1.093-.995 1.765-.971 2.798.12Zm-6.327 16.48-1.021-1.008c.468-.264.924-.695 1.405-.743.36-.036.756.455 1.128.72-.456.311-.912.623-1.512 1.03Zm6.134 5.445c-.084.24-.36.456-.588.611-.552.372-1.128.72-1.693 1.068-.24-.624-.48-1.235-.72-1.86.24-1.966.648-2.59 1.885-2.374.516.096 1.128.552 1.357 1.02.192.383-.084 1.031-.253 1.535h.012Zm1.093-35.298c-1.068-1.08-1.056-1.727.108-2.962.84 1.115.949 2.063-.108 2.962Zm48.623-48.478c.397-.276.865-.432 1.31-.636.167.468.515.972.431 1.391-.084.468-.516 1.164-.876 1.212-.696.096-1.453-.192-2.173-.312l-.084-.48c.468-.396.9-.827 1.405-1.175h-.013Zm-40.867 22.032c-.264-.396-.757-.791-.757-1.175 0-.468.42-.936.66-1.403.36.36.721.731 1.225 1.247-.468.552-.804.947-1.128 1.331Zm5.45 21.613c1.069-1.415 1.681-1.451 2.894-.48v.48h-2.894Zm12.078-21.36c-.144-.037-.288-.025-.432-.037l-.12.288c-.684-.288-1.609-.396-2.005-.912-.792-1.007 0-2.314 1.309-2.398.48-.036.96 0 1.428 0 1.165-.036 1.67.563 1.61 1.667-.06 1.14-.65 1.643-1.802 1.391h.012Zm8.704-20.102c-1.08.204-2.053-.048-2.209-1.512-.12-1.163.853-2.086 1.873-1.583.937.456 1.67 1.344 2.413 2.111.06.06-.348.792-.66.948-.336.168-.828.036-1.417.036Zm1.105 89.089c.912-1.092 1.74-1.008 2.653-.06-.816 1.091-1.645 1.055-2.653.06Zm5.27-81.605c-.348-.42-.684-.84-1.176-1.44.468-.503.792-.827 1.104-1.163.277.468.72.936.769 1.427.036.372-.444.78-.696 1.176Zm2.282-7.484c-.42 0-.865-.492-1.297-.78.372-.324.732-.648 1.273-1.14l1.212 1.044c-.396.312-.792.864-1.188.876Zm8.872 86.282c-1.033 2.243-2.93 2.543-4.694.792-.337-.336-.649-.684-.985-1.032.793-.815 1.453-1.487 1.957-2.014 1.189.455 2.293.827 3.338 1.319.228.108.48.707.372.923l.012.012Zm19.785-110.881c1.02.9.96 1.775 0 2.758-.948-.995-.996-1.87 0-2.758Zm2.546 113.868c-.613-.516-1.2-1.056-1.801-1.583l.132-.564c.768-.084 1.633-.408 2.257-.144.42.168.684 1.175.684 1.811 0 .78-.54 1.091-1.26.492l-.012-.012Zm4.37 5.66c-.06.9-.649 1.128-1.345.469-.54-.516-1.02-1.104-1.525-1.656l.048-.563c.757 0 1.61-.204 2.246.072.372.168.612 1.103.576 1.667v.012Zm0-11.201c-.132.623-.805 1.127-1.057 1.45-1.524-.095-2.089-.587-1.993-1.678.084-1.02.637-1.62 1.657-1.547 1.057.06 1.573.863 1.38 1.775h.013ZM369 226.608c-1.008.96-1.884 1.008-2.785.024.889-1.031 1.765-.935 2.785-.024Zm-17 47.28c-1.02-.025-1.428-.624-1.44-1.56-.012-1.043.492-1.571 1.56-1.547 1.02.024 1.441.576 1.417 1.535.024 1.055-.468 1.595-1.549 1.571H352Zm10.89 46.727c-.397.947-1.31 1.679-2.053 2.446-.06.06-.793-.335-.949-.647-.168-.336-.036-.84-.036-1.416-.132-.983-.096-2.002 1.38-2.17 1.237-.132 2.126.671 1.658 1.775v.012Zm-.085-65.438c-.36.048-.792-.408-1.188-.636.408-.335.804-.671 1.38-1.151.529.444.877.732 1.213 1.02-.468.275-.924.707-1.417.755l.012.012Zm4.755 72.874c-1.02 0-1.549-.54-1.525-1.5.024-.959.456-1.655 1.573-1.655 1.164 0 1.428.756 1.489 1.512 0 1.211-.529 1.643-1.537 1.63v.013Zm3.866-59.093c-.276-.456-.745-.888-.769-1.355-.024-.372.48-.768.757-1.164l1.164 1.247c-.504.552-.828.912-1.152 1.26v.012Zm41.48 4.533c-.132-.491-.469-1.055-.324-1.45.168-.48.696-1.08 1.152-1.164.564-.108 1.213.252 1.837.408l.156.575c-.456.348-.888.744-1.38 1.032-.445.264-.961.396-1.441.6Z" id="prefix-X2_-形状" fill="#469142" fill-rule="nonzero" style="" stroke="#ffffff" paint-order="stroke"/><desc>Created with Snap</desc><defs/></svg></svg></g>
            <g id="icon_name_and_slogan_gap">
            </g>
            <g class="name_and_slogan" id="name_and_slogan_id">
              <g class="name"><g id="nameDefaultGroup"><path d="M284.5 257.2 Q284.5 257.8 284.1 258.1 Q283.7 258.5 283.1 258.5 Q282.8 258.5 282.6 258.3 Q281.6 257.9 280.3 256.8 Q279.8 257.5 279.2 257.8 Q278.7 258.2 278 258.2 Q277.6 258.2 277.2 257.9 Q276.9 257.5 276.9 257.1 Q276.9 257 276.9 256.8 Q277.2 256 278.3 254.8 Q277.2 253.7 277.2 253 Q277.2 252.1 277.9 252.1 Q278.4 252.1 279 252.4 Q279.7 252.7 280.1 253 L280.1 253 Q281.2 252.1 282.3 252.1 Q282.7 252.1 282.8 252.1 Q283.1 252.2 283.2 252.4 Q283.4 252.6 283.4 252.9 Q283.4 253.3 283.2 253.4 Q282.6 253.9 282.1 254.5 Q283.6 255.5 284.3 256.6 Q284.5 256.9 284.5 257.2 Z M291.4 249.6 Q291.4 250.2 290.9 250.6 Q290.5 250.9 289.7 250.8 Q289.3 250.7 289 250.3 Q288.8 249.9 288.8 249.7 Q288.8 249.5 288.9 249.3 Q288.9 249.1 289.1 248.8 Q289.3 248.6 289.5 248.5 Q289.7 248.4 290.2 248.3 Q290.7 248.3 291 248.7 Q291.4 249.1 291.4 249.6 Z M291.9 255.9 L291.9 256.6 Q291.9 258 291.7 259.4 Q291.5 260.7 290.6 260.7 Q290.4 260.7 290 260.5 Q288.7 259.9 288.7 257.2 Q288.7 256.4 288.8 255.5 Q288.9 254.7 288.9 254.4 Q289 253.3 289.4 252.5 Q289.9 251.7 290.4 251.7 Q290.7 251.7 290.9 252 Q291.4 252.5 291.6 253.5 Q291.8 254.5 291.9 255.9 Z M307 258.1 Q307 258.3 307 258.4 Q306.6 259.6 305.6 260.2 Q304.6 260.8 303.1 260.8 Q301.6 260.8 300.1 260.2 Q298.6 259.6 297.7 258.8 Q296.1 257.3 296.1 255.3 Q296.1 253.6 297.3 251.9 Q298.5 250.3 300.3 249.4 Q301.2 248.8 302.3 248.8 Q303.9 248.8 304.9 250 Q306.1 251 306.1 252.6 Q306.1 253.6 305.6 254.5 Q305.1 255.5 304.1 256.2 Q303.2 257 301.9 257.2 L301.2 257.3 Q301.9 257.5 302.6 257.5 Q302.8 257.5 303.4 257.4 L304 257.3 Q305.2 257 305.9 257 Q306.4 257 306.7 257.3 Q307 257.7 307 258.1 Z M298.9 254.9 Q298.9 255.2 299 255.6 Q299.2 255.5 299.3 255.5 Q299.5 255.5 299.8 255.5 Q300.8 255.5 301.7 255.2 Q302.6 254.8 303.2 254.2 Q303.9 253.5 303.9 252.6 Q303.9 251.9 303.5 251.5 Q303.1 251.1 302.4 251.1 Q301.5 251.1 300.8 251.7 Q300 252.2 299.5 253 Q298.9 253.9 298.9 254.9 Z M321.9 254.4 Q321.9 255.8 320.8 257.1 Q319.7 258.5 318 259.3 Q316.4 260.2 315 260.2 L314.6 260.2 Q314.2 260.1 313.9 259.9 Q313.6 259.6 313.5 259.2 Q313.2 259.6 312.7 259.6 Q312.1 259.6 311.7 259.2 Q311.2 258.9 311.2 258.3 Q311.1 257.2 311.5 256 Q311.7 255.1 311.7 253.8 Q311.8 252.6 311.8 252.1 Q311.9 250.6 312 249.8 Q312 249.2 312.4 248.9 Q312.8 248.6 313.3 248.6 Q313.8 248.6 314.2 248.9 Q314.5 249.2 314.5 249.7 Q314.5 250.5 314.4 252.1 Q316.2 250.7 318 250.7 Q319.7 250.7 321 252.2 Q321.9 253.2 321.9 254.4 Z M319.2 254.3 Q319.2 254 319 253.8 Q318.5 253.3 317.7 253.3 Q316.6 253.3 315.6 254.4 Q314.5 255.5 314 256.9 L313.9 257.7 Q314.2 257.5 314.6 257.6 Q314.7 257.6 315 257.6 Q316.6 257.6 318 256.3 Q318.4 255.9 318.8 255.4 Q319.2 254.8 319.2 254.3 Z M333.6 255.3 Q333.6 257.1 332.8 258.5 Q332.2 259.4 331.1 260.1 Q330.1 260.7 329.1 260.6 Q327.7 260.5 326.8 259.7 Q325.8 258.8 325.3 257.5 Q324.9 256.2 324.9 254.9 Q324.9 253.2 325.6 252.3 Q325.7 251.6 326.3 251.1 Q326.9 250.5 327.7 250.2 Q328.6 249.9 329.3 249.9 Q330.7 249.9 331.7 250.7 Q332.8 251.6 333.3 253 Q333.6 254.1 333.6 255.3 Z M330.7 255 Q330.7 254.2 330.4 253.4 Q330.1 252.7 329.4 252.7 Q329 252.7 328.7 252.8 Q328.4 253 327.9 253.3 Q327.3 253.7 327 253.8 L327.1 254.3 Q327.2 255.2 327.6 256.2 Q328.1 257.1 328.6 257.5 Q328.7 257.5 328.8 257.6 Q328.9 257.7 329.1 257.7 Q329.1 257.6 329.3 257.5 Q329.6 257.5 329.7 257.4 Q330.2 257 330.4 256.3 Q330.7 255.7 330.7 255 Z M339.7 259 Q339.7 259.4 339.5 259.7 Q339.3 260.2 338.7 260.4 Q338.4 260.5 338.3 260.5 Q337.8 260.5 337.5 260.2 Q336.9 259.9 336.8 259.4 Q336.8 259.1 336.8 259 Q336.8 258.5 337 258.2 Q337.2 257.9 337.5 257.7 Q337.8 257.5 338.2 257.5 Q338.4 257.5 338.6 257.6 Q339.4 257.8 339.7 258.6 Q339.7 258.9 339.7 259 Z M353.7 253.2 Q353.7 254.5 353 255.7 Q352.4 257 351.3 258 Q350.2 259 349.1 259.5 Q347.9 259.9 347 260 Q347.1 260.6 347.1 260.9 Q347.1 261.5 346.7 261.9 Q346.2 262.2 345.6 262.2 Q345.3 262.2 345 262 Q344.7 261.9 344.5 261.5 Q343.5 259.5 343.5 255.8 Q343.5 254.2 343.7 253.1 Q343.9 251.9 344.7 251.2 Q344.7 251.1 345 251.1 Q345.4 250.1 346.5 249.6 Q347.6 249.1 349 249.1 Q350.1 249.1 351.1 249.4 Q352.1 249.8 352.7 250.4 Q353.7 251.6 353.7 253.2 Z M351.4 252.5 Q351.4 252.2 351.2 251.9 Q350.3 251.1 348.6 251.1 Q347.2 251.1 346.1 251.7 Q345.9 251.8 345.7 251.8 Q345.9 252.6 346 254.2 Q346 255.5 346.2 256.1 L346.3 256.9 Q346.5 256.8 346.8 256.8 Q347 256.7 347.2 256.7 Q347.9 256.6 348.2 256.4 Q349.5 256 350.4 254.8 Q350.7 254.3 351.1 253.7 Q351.4 253 351.4 252.5 Z M363.9 250.5 Q363.9 250.9 363.6 251.3 Q363.4 251.6 363.1 251.8 Q362.8 252 362.5 252 Q362.2 252 361.9 251.7 L361.5 252 Q360.1 252.9 359.6 253.9 Q360.3 256.7 360.3 258.5 Q360.3 261 359 261 Q358.1 261 357.8 259.9 Q357.5 258.8 357.4 257 Q357.4 256.4 357.3 256.3 L357.2 254.9 Q356.9 253 356.9 252 Q356.9 251 357.1 250.2 Q357.2 250 357.4 249.8 Q357.6 249.7 357.8 249.7 Q358.2 249.7 358.4 250 Q358.6 250.4 359 251.6 Q360 250.1 361.4 249.5 Q361.9 249.2 362.5 249.2 Q363 249.2 363.5 249.6 Q363.9 250 363.9 250.5 Z M375.5 255.3 Q375.5 257.1 374.6 258.5 Q374 259.4 373 260.1 Q371.9 260.7 370.9 260.6 Q369.6 260.5 368.6 259.7 Q367.7 258.8 367.2 257.5 Q366.7 256.2 366.7 254.9 Q366.7 253.2 367.4 252.3 Q367.5 251.6 368.1 251.1 Q368.7 250.5 369.6 250.2 Q370.4 249.9 371.1 249.9 Q372.5 249.9 373.6 250.7 Q374.7 251.6 375.1 253 Q375.5 254.1 375.5 255.3 Z M372.5 255 Q372.5 254.2 372.2 253.4 Q371.9 252.7 371.2 252.7 Q370.8 252.7 370.5 252.8 Q370.2 253 369.7 253.3 Q369.1 253.7 368.9 253.8 L368.9 254.3 Q369.1 255.2 369.5 256.2 Q369.9 257.1 370.5 257.5 Q370.5 257.5 370.7 257.6 Q370.8 257.7 370.9 257.7 Q371 257.6 371.2 257.5 Q371.4 257.5 371.5 257.4 Q372 257 372.3 256.3 Q372.5 255.7 372.5 255 Z" style="" fill="#28b4d2" transform="matrix(1,0,0,1,0,0)"/></g></g>
              <g class="slogan"><g id="sloganDefaultGroup"/></g>
            </g>
            <g class="border">
            </g>
          </g>
          <rect class="watermarklayer" height="100%" width="100%" y="0" x="0" style="" fill="none"/>
          <rect class="watermarklayer_1" height="100%" width="100%" y="0" x="0" style="" fill="none"/>
          <defs id="defs">
            <mask xmlns="http://www.w3.org/2000/svg" id="mask">
                <rect id="showAll" fill="white" x="169" y="101" width="262" height="241"/>
                <rect id="hideNameBg" fill="black" x="0" y="0" width="0" height="0" stroke-width="2" stroke="black"/>
                <rect id="hideSloganBg" fill="black" x="0" y="0" width="0" height="0" stroke-width="2" stroke="black"/>
            </mask>
            
            
          </defs>
        </g>
        </svg>